<svg width="61" height="61" viewBox="0 0 61 61" fill="none" xmlns="http://www.w3.org/2000/svg">
<g id="Icons">
<path id="Icon" d="M40.5011 40.4987L30.5011 30.4987M30.5011 30.4987L20.5011 40.4987M30.5011 30.4987V52.9987M51.4761 46.4737C53.9145 45.1444 55.8407 43.0409 56.9508 40.4953C58.0609 37.9497 58.2917 35.1068 57.6066 32.4155C56.9216 29.7241 55.3598 27.3375 53.1678 25.6324C50.9758 23.9272 48.2783 23.0006 45.5011 22.9987H42.3511C41.5944 20.0718 40.184 17.3546 38.226 15.0512C36.268 12.7479 33.8132 10.9184 31.0464 9.70026C28.2795 8.48215 25.2725 7.90714 22.2514 8.01845C19.2303 8.12975 16.2738 8.92449 13.6041 10.3429C10.9343 11.7613 8.6209 13.7665 6.83768 16.2077C5.05445 18.6489 3.84785 21.4626 3.30857 24.4372C2.7693 27.4119 2.91138 30.4701 3.72415 33.3819C4.53692 36.2937 5.99923 38.9834 8.00112 41.2487" stroke="#90119B" stroke-width="2.5" stroke-linecap="round" stroke-linejoin="round"/>
</g>
</svg>
